<?xml version="1.0" standalone="no"?>
<!DOCTYPE svg PUBLIC "-//W3C//DTD SVG 20010904//EN"
 "http://www.w3.org/TR/2001/REC-SVG-20010904/DTD/svg10.dtd">
<svg version="1.0" xmlns="http://www.w3.org/2000/svg"
 width="627.000000pt" height="627.000000pt" viewBox="0 0 627.000000 627.000000"
 preserveAspectRatio="xMidYMid meet">
<metadata>
Created by potrace 1.11, written by Peter Selinger 2001-2013
</metadata>
<g transform="translate(0.000000,627.000000) scale(0.100000,-0.100000)"
fill="#000000" stroke="none">
<path d="M2905 6178 c-1096 -80 -2068 -741 -2542 -1728 -135 -281 -235 -615
-272 -910 -6 -47 -14 -103 -17 -125 -10 -71 -12 -407 -3 -510 56 -647 288
-1215 702 -1717 93 -114 302 -319 412 -406 44 -35 89 -70 99 -79 47 -38 280
-186 372 -235 576 -311 1258 -428 1914 -328 523 79 1018 296 1440 629 158 125
417 392 536 551 262 352 429 699 529 1101 255 1032 -38 2104 -780 2855 -242
245 -472 414 -776 573 -484 251 -1064 370 -1614 329z"/>
</g>
</svg>
